# Blender v2.79 (sub 0) OBJ File: 'pizzaknife.blend'
# www.blender.org
mtllib pizzaknife.mtl
o Cylinder.001
v -3.976653 1.424374 -1.855681
v -4.833212 1.424374 -1.855681
v -3.976653 1.412242 -1.856984
v -4.833212 1.412242 -1.856984
v -3.976653 1.400576 -1.860846
v -4.833212 1.400576 -1.860846
v -3.976653 1.389824 -1.867116
v -4.833212 1.389824 -1.867116
v -3.976653 1.380400 -1.875554
v -4.833212 1.380400 -1.875554
v -3.976653 1.372666 -1.885836
v -4.833212 1.372666 -1.885836
v -3.976653 1.366919 -1.897566
v -4.833212 1.366919 -1.897566
v -3.976653 1.363380 -1.910295
v -4.833212 1.363380 -1.910295
v -3.976653 1.362185 -1.923532
v -4.833212 1.362185 -1.923532
v -3.976653 1.363380 -1.936769
v -4.833212 1.363380 -1.936769
v -3.976653 1.366919 -1.949498
v -4.833212 1.366919 -1.949498
v -3.976653 1.372666 -1.961228
v -4.833212 1.372666 -1.961228
v -3.976653 1.380400 -1.971510
v -4.833212 1.380400 -1.971510
v -3.976653 1.389824 -1.979948
v -4.833212 1.389824 -1.979948
v -3.976653 1.400576 -1.986218
v -4.833212 1.400576 -1.986218
v -3.976653 1.412242 -1.990080
v -4.833212 1.412242 -1.990080
v -3.976653 1.424374 -1.991383
v -4.833212 1.424374 -1.991383
v -3.976653 1.436507 -1.990080
v -4.833212 1.436507 -1.990080
v -3.976653 1.448173 -1.986218
v -4.833212 1.448173 -1.986218
v -3.976653 1.458925 -1.979948
v -4.833212 1.458925 -1.979948
v -3.976653 1.468348 -1.971510
v -4.833212 1.468348 -1.971510
v -3.976653 1.476082 -1.961228
v -4.833212 1.476082 -1.961228
v -3.976653 1.481829 -1.949497
v -4.833212 1.481829 -1.949497
v -3.976653 1.485368 -1.936769
v -4.833212 1.485368 -1.936769
v -3.976653 1.486563 -1.923532
v -4.833212 1.486563 -1.923532
v -3.976653 1.485368 -1.910295
v -4.833212 1.485368 -1.910295
v -3.976653 1.481829 -1.897566
v -4.833212 1.481829 -1.897566
v -3.976653 1.476082 -1.885836
v -4.833212 1.476082 -1.885836
v -3.976653 1.468348 -1.875554
v -4.833212 1.468348 -1.875554
v -3.976653 1.458924 -1.867116
v -4.833212 1.458924 -1.867116
v -3.976653 1.448173 -1.860846
v -4.833212 1.448173 -1.860846
v -3.976653 1.436507 -1.856984
v -4.833212 1.436507 -1.856984
vn 0.0000 -0.1068 0.9943
vn -0.0000 -0.3142 0.9494
vn 0.0000 -0.5038 0.8638
vn 0.0000 -0.6671 0.7450
vn 0.0000 -0.7992 0.6011
vn -0.0000 -0.8980 0.4399
vn -0.0000 -0.9635 0.2679
vn 0.0000 -0.9959 0.0899
vn 0.0000 -0.9959 -0.0899
vn -0.0000 -0.9635 -0.2679
vn 0.0000 -0.8980 -0.4399
vn 0.0000 -0.7992 -0.6011
vn 0.0000 -0.6671 -0.7450
vn -0.0000 -0.5038 -0.8638
vn 0.0000 -0.3142 -0.9494
vn 0.0000 -0.1068 -0.9943
vn 0.0000 0.1068 -0.9943
vn 0.0000 0.3142 -0.9494
vn 0.0000 0.5038 -0.8638
vn 0.0000 0.6671 -0.7450
vn 0.0000 0.7992 -0.6011
vn 0.0000 0.8980 -0.4400
vn 0.0000 0.9635 -0.2679
vn 0.0000 0.9960 -0.0899
vn 0.0000 0.9960 0.0899
vn 0.0000 0.9635 0.2679
vn 0.0000 0.8980 0.4399
vn -0.0000 0.7992 0.6011
vn 0.0000 0.6671 0.7450
vn 0.0000 0.5038 0.8638
vn -1.0000 0.0000 0.0000
vn 0.0000 0.3142 0.9494
vn 0.0000 0.1069 0.9943
vn 1.0000 0.0000 0.0000
usemtl None
s off
f 1//1 2//1 4//1 3//1
f 3//2 4//2 6//2 5//2
f 5//3 6//3 8//3 7//3
f 7//4 8//4 10//4 9//4
f 9//5 10//5 12//5 11//5
f 11//6 12//6 14//6 13//6
f 13//7 14//7 16//7 15//7
f 15//8 16//8 18//8 17//8
f 17//9 18//9 20//9 19//9
f 19//10 20//10 22//10 21//10
f 21//11 22//11 24//11 23//11
f 23//12 24//12 26//12 25//12
f 25//13 26//13 28//13 27//13
f 27//14 28//14 30//14 29//14
f 29//15 30//15 32//15 31//15
f 31//16 32//16 34//16 33//16
f 33//17 34//17 36//17 35//17
f 35//18 36//18 38//18 37//18
f 37//19 38//19 40//19 39//19
f 39//20 40//20 42//20 41//20
f 41//21 42//21 44//21 43//21
f 43//22 44//22 46//22 45//22
f 45//23 46//23 48//23 47//23
f 47//24 48//24 50//24 49//24
f 49//25 50//25 52//25 51//25
f 51//26 52//26 54//26 53//26
f 53//27 54//27 56//27 55//27
f 55//28 56//28 58//28 57//28
f 57//29 58//29 60//29 59//29
f 59//30 60//30 62//30 61//30
f 4//31 2//31 64//31 62//31 60//31 58//31 56//31 54//31 52//31 50//31 48//31 46//31 44//31 42//31 40//31 38//31 36//31 34//31 32//31 30//31 28//31 26//31 24//31 22//31 20//31 18//31 16//31 14//31 12//31 10//31 8//31 6//31
f 61//32 62//32 64//32 63//32
f 63//33 64//33 2//33 1//33
f 1//34 3//34 5//34 7//34 9//34 11//34 13//34 15//34 17//34 19//34 21//34 23//34 25//34 27//34 29//34 31//34 33//34 35//34 37//34 39//34 41//34 43//34 45//34 47//34 49//34 51//34 53//34 55//34 57//34 59//34 61//34 63//34
o Plane.001
v -3.878468 1.457872 -1.749364
v -3.081989 1.457872 -1.749364
v -3.878468 1.375538 -1.749364
v -3.081989 1.375538 -1.749364
v -3.991659 1.465134 -1.872416
v -3.991659 1.382800 -1.872416
vn 0.0000 0.0000 1.0000
vn -0.7360 0.0000 0.6770
usemtl None
s off
f 65//35 67//35 68//35 66//35
f 65//36 69//36 70//36 67//36
o Plane
v -3.884497 1.478838 -2.096382
v -3.088018 1.478838 -2.096382
v -3.884497 1.396504 -2.096382
v -3.088018 1.396504 -2.096382
v -3.993744 1.480706 -1.973980
v -3.993744 1.398373 -1.973980
vn 0.0000 0.0000 1.0000
vn 0.7461 0.0000 0.6659
usemtl None
s off
f 71//37 73//37 74//37 72//37
f 71//38 75//38 76//38 73//38
o Cylinder
v -3.105344 1.466218 -2.087895
v -3.105344 1.466218 -1.752676
v -3.098544 1.465548 -2.087895
v -3.098544 1.465548 -1.752676
v -3.092006 1.463565 -2.087895
v -3.092006 1.463565 -1.752676
v -3.085980 1.460344 -2.087895
v -3.085980 1.460344 -1.752676
v -3.080699 1.456009 -2.087895
v -3.080699 1.456009 -1.752676
v -3.076364 1.450728 -2.087895
v -3.076364 1.450728 -1.752676
v -3.073143 1.444702 -2.087895
v -3.073143 1.444702 -1.752676
v -3.071160 1.438164 -2.087895
v -3.071160 1.438164 -1.752676
v -3.070491 1.431364 -2.087895
v -3.070491 1.431364 -1.752676
v -3.071160 1.424565 -2.087895
v -3.071160 1.424565 -1.752676
v -3.073143 1.418027 -2.087895
v -3.073143 1.418026 -1.752676
v -3.076364 1.412001 -2.087895
v -3.076364 1.412001 -1.752676
v -3.080699 1.406719 -2.087895
v -3.080699 1.406719 -1.752676
v -3.085980 1.402385 -2.087895
v -3.085980 1.402385 -1.752676
v -3.092006 1.399164 -2.087895
v -3.092006 1.399164 -1.752676
v -3.098544 1.397181 -2.087895
v -3.098544 1.397181 -1.752676
v -3.105344 1.396511 -2.087895
v -3.105344 1.396511 -1.752676
v -3.112143 1.397181 -2.087895
v -3.112143 1.397181 -1.752676
v -3.118682 1.399164 -2.087895
v -3.118682 1.399164 -1.752676
v -3.124707 1.402385 -2.087895
v -3.124707 1.402385 -1.752676
v -3.129989 1.406719 -2.087895
v -3.129989 1.406719 -1.752676
v -3.134323 1.412001 -2.087895
v -3.134323 1.412001 -1.752676
v -3.137544 1.418027 -2.087895
v -3.137544 1.418027 -1.752676
v -3.139528 1.424565 -2.087895
v -3.139528 1.424565 -1.752676
v -3.140197 1.431364 -2.087895
v -3.140197 1.431364 -1.752676
v -3.139527 1.438164 -2.087895
v -3.139527 1.438164 -1.752676
v -3.137544 1.444702 -2.087895
v -3.137544 1.444702 -1.752676
v -3.134323 1.450728 -2.087895
v -3.134323 1.450728 -1.752676
v -3.129989 1.456009 -2.087895
v -3.129989 1.456009 -1.752676
v -3.124707 1.460344 -2.087895
v -3.124707 1.460344 -1.752676
v -3.118682 1.463565 -2.087895
v -3.118682 1.463565 -1.752676
v -3.112143 1.465548 -2.087895
v -3.112143 1.465548 -1.752676
vn 0.0980 0.9952 0.0000
vn 0.2903 0.9569 0.0000
vn 0.4714 0.8819 0.0000
vn 0.6344 0.7730 0.0000
vn 0.7730 0.6344 0.0000
vn 0.8819 0.4714 0.0000
vn 0.9569 0.2903 0.0000
vn 0.9952 0.0980 0.0000
vn 0.9952 -0.0980 0.0000
vn 0.9569 -0.2903 0.0000
vn 0.8819 -0.4714 -0.0000
vn 0.7730 -0.6344 -0.0000
vn 0.6344 -0.7730 -0.0000
vn 0.4714 -0.8819 -0.0000
vn 0.2903 -0.9569 0.0000
vn 0.0980 -0.9952 0.0000
vn -0.0980 -0.9952 0.0000
vn -0.2903 -0.9569 0.0000
vn -0.4714 -0.8819 0.0000
vn -0.6344 -0.7730 0.0000
vn -0.7730 -0.6344 0.0000
vn -0.8819 -0.4714 0.0000
vn -0.9569 -0.2903 0.0000
vn -0.9952 -0.0980 -0.0000
vn -0.9952 0.0980 0.0000
vn -0.9569 0.2903 0.0000
vn -0.8819 0.4714 0.0000
vn -0.7730 0.6344 0.0000
vn -0.6344 0.7730 0.0000
vn -0.4714 0.8819 0.0000
vn -0.0000 0.0000 1.0000
vn -0.2903 0.9569 0.0000
vn -0.0980 0.9952 0.0000
vn 0.0000 0.0000 -1.0000
usemtl None
s off
f 77//39 78//39 80//39 79//39
f 79//40 80//40 82//40 81//40
f 81//41 82//41 84//41 83//41
f 83//42 84//42 86//42 85//42
f 85//43 86//43 88//43 87//43
f 87//44 88//44 90//44 89//44
f 89//45 90//45 92//45 91//45
f 91//46 92//46 94//46 93//46
f 93//47 94//47 96//47 95//47
f 95//48 96//48 98//48 97//48
f 97//49 98//49 100//49 99//49
f 99//50 100//50 102//50 101//50
f 101//51 102//51 104//51 103//51
f 103//52 104//52 106//52 105//52
f 105//53 106//53 108//53 107//53
f 107//54 108//54 110//54 109//54
f 109//55 110//55 112//55 111//55
f 111//56 112//56 114//56 113//56
f 113//57 114//57 116//57 115//57
f 115//58 116//58 118//58 117//58
f 117//59 118//59 120//59 119//59
f 119//60 120//60 122//60 121//60
f 121//61 122//61 124//61 123//61
f 123//62 124//62 126//62 125//62
f 125//63 126//63 128//63 127//63
f 127//64 128//64 130//64 129//64
f 129//65 130//65 132//65 131//65
f 131//66 132//66 134//66 133//66
f 133//67 134//67 136//67 135//67
f 135//68 136//68 138//68 137//68
f 80//69 78//69 140//69 138//69 136//69 134//69 132//69 130//69 128//69 126//69 124//69 122//69 120//69 118//69 116//69 114//69 112//69 110//69 108//69 106//69 104//69 102//69 100//69 98//69 96//69 94//69 92//69 90//69 88//69 86//69 84//69 82//69
f 137//70 138//70 140//70 139//70
f 139//71 140//71 78//71 77//71
f 77//72 79//72 81//72 83//72 85//72 87//72 89//72 91//72 93//72 95//72 97//72 99//72 101//72 103//72 105//72 107//72 109//72 111//72 113//72 115//72 117//72 119//72 121//72 123//72 125//72 127//72 129//72 131//72 133//72 135//72 137//72 139//72
o Circle
v -3.105210 0.965243 -1.913327
v -3.015581 0.974070 -1.913327
v -2.929396 1.000214 -1.913327
v -2.849967 1.042670 -1.913327
v -2.780348 1.099805 -1.913327
v -2.723212 1.169425 -1.913327
v -2.680757 1.248853 -1.913327
v -2.654613 1.335038 -1.913327
v -2.645785 1.424667 -1.913327
v -2.654613 1.514296 -1.913327
v -2.680757 1.600481 -1.913327
v -2.723212 1.679910 -1.913327
v -2.780348 1.749529 -1.913327
v -2.849967 1.806665 -1.913327
v -2.929396 1.849120 -1.913327
v -3.015581 1.875264 -1.913327
v -3.105210 1.884092 -1.913327
v -3.194839 1.875264 -1.913327
v -3.281024 1.849120 -1.913327
v -3.360453 1.806664 -1.913327
v -3.430072 1.749529 -1.913327
v -3.487208 1.679909 -1.913327
v -3.529663 1.600481 -1.913327
v -3.555807 1.514296 -1.913327
v -3.564635 1.424667 -1.913327
v -3.555807 1.335037 -1.913327
v -3.529663 1.248852 -1.913327
v -3.487207 1.169424 -1.913327
v -3.430072 1.099805 -1.913327
v -3.360452 1.042669 -1.913327
v -3.281024 1.000214 -1.913327
v -3.194839 0.974070 -1.913327
v -3.105210 0.965243 -1.958321
v -3.015581 0.974070 -1.958321
v -2.929396 1.000214 -1.958321
v -2.849967 1.042670 -1.958321
v -2.780348 1.099805 -1.958321
v -2.723212 1.169425 -1.958321
v -2.680757 1.248853 -1.958321
v -2.654613 1.335038 -1.958321
v -2.645785 1.424667 -1.958321
v -2.654613 1.514296 -1.958321
v -2.680757 1.600481 -1.958321
v -2.723212 1.679910 -1.958321
v -2.780348 1.749529 -1.958321
v -2.849967 1.806665 -1.958321
v -2.929396 1.849120 -1.958321
v -3.015581 1.875264 -1.958321
v -3.105210 1.884092 -1.958321
v -3.194839 1.875264 -1.958321
v -3.281024 1.849120 -1.958321
v -3.360453 1.806664 -1.958321
v -3.430072 1.749529 -1.958321
v -3.487208 1.679909 -1.958321
v -3.529663 1.600481 -1.958321
v -3.555807 1.514296 -1.958321
v -3.564635 1.424667 -1.958321
v -3.555807 1.335037 -1.958321
v -3.529663 1.248852 -1.958321
v -3.487207 1.169424 -1.958321
v -3.430072 1.099805 -1.958321
v -3.360452 1.042669 -1.958321
v -3.281024 1.000214 -1.958321
v -3.194839 0.974070 -1.958321
vn 0.0980 -0.9952 0.0000
vn -0.7730 -0.6344 0.0000
vn 0.2903 0.9569 0.0000
vn 0.2903 -0.9569 0.0000
vn -0.6344 -0.7730 0.0000
vn 0.0980 0.9952 0.0000
vn 0.4714 -0.8819 0.0000
vn -0.4714 -0.8819 0.0000
vn -0.0980 0.9952 0.0000
vn 0.6344 -0.7730 0.0000
vn -0.2903 -0.9569 0.0000
vn -0.2903 0.9569 0.0000
vn 0.7730 -0.6344 0.0000
vn -0.0980 -0.9952 0.0000
vn -0.4714 0.8819 0.0000
vn 0.8819 -0.4714 0.0000
vn -0.6344 0.7730 0.0000
vn 0.9569 -0.2903 0.0000
vn -0.7730 0.6344 0.0000
vn 0.9952 -0.0980 0.0000
vn -0.8819 0.4714 0.0000
vn 0.9952 0.0980 0.0000
vn -0.9569 0.2903 0.0000
vn 0.9569 0.2903 0.0000
vn -0.9952 0.0980 0.0000
vn 0.8819 0.4714 0.0000
vn -0.9952 -0.0980 0.0000
vn 0.7730 0.6344 0.0000
vn -0.9569 -0.2903 0.0000
vn 0.6344 0.7730 0.0000
vn -0.8819 -0.4714 0.0000
vn 0.4714 0.8819 0.0000
vn -0.0000 0.0000 -1.0000
vn 0.0000 0.0000 1.0000
usemtl None
s off
f 142//73 141//73 173//73 174//73
f 169//74 168//74 200//74 201//74
f 156//75 155//75 187//75 188//75
f 143//76 142//76 174//76 175//76
f 170//77 169//77 201//77 202//77
f 157//78 156//78 188//78 189//78
f 144//79 143//79 175//79 176//79
f 171//80 170//80 202//80 203//80
f 158//81 157//81 189//81 190//81
f 145//82 144//82 176//82 177//82
f 172//83 171//83 203//83 204//83
f 159//84 158//84 190//84 191//84
f 146//85 145//85 177//85 178//85
f 141//86 172//86 204//86 173//86
f 160//87 159//87 191//87 192//87
f 147//88 146//88 178//88 179//88
f 161//89 160//89 192//89 193//89
f 148//90 147//90 179//90 180//90
f 162//91 161//91 193//91 194//91
f 149//92 148//92 180//92 181//92
f 163//93 162//93 194//93 195//93
f 150//94 149//94 181//94 182//94
f 164//95 163//95 195//95 196//95
f 151//96 150//96 182//96 183//96
f 165//97 164//97 196//97 197//97
f 152//98 151//98 183//98 184//98
f 166//99 165//99 197//99 198//99
f 153//100 152//100 184//100 185//100
f 167//101 166//101 198//101 199//101
f 154//102 153//102 185//102 186//102
f 168//103 167//103 199//103 200//103
f 155//104 154//104 186//104 187//104
f 174//105 173//105 204//105 203//105 202//105 201//105 200//105 199//105 198//105 197//105 196//105 195//105 194//105 193//105 192//105 191//105 190//105 189//105 188//105 187//105 186//105 185//105 184//105 183//105 182//105 181//105 180//105 179//105 178//105 177//105 176//105 175//105
f 142//106 143//106 144//106 145//106 146//106 147//106 148//106 149//106 150//106 151//106 152//106 153//106 154//106 155//106 156//106 157//106 158//106 159//106 160//106 161//106 162//106 163//106 164//106 165//106 166//106 167//106 168//106 169//106 170//106 171//106 172//106 141//106
