ply
format ascii 1.0
comment Created by Blender 2.79 (sub 0) - www.blender.org, source file: ''
element vertex 29
property float x
property float y
property float z
property float nx
property float ny
property float nz
property float s
property float t
element face 35
property list uchar uint vertex_indices
end_header
0.598971 -1.901097 0.618261 -0.332224 -0.746879 0.575976 0.000000 0.000000
0.612125 -1.865000 0.639027 0.140507 -0.260994 0.955046 0.000000 0.000000
-0.024196 -1.348697 0.639027 -0.194922 0.094729 0.976226 0.000000 0.000000
-0.087020 -1.325482 0.618261 -0.807978 0.312265 0.499649 0.000000 0.000000
0.866697 -1.626187 0.558359 0.694174 -0.218879 -0.685690 0.000000 0.000000
0.789707 -1.806470 0.558359 0.638142 -0.350078 -0.685690 0.000000 0.000000
0.679024 -1.968269 0.558359 0.111454 -0.812372 -0.572344 0.000000 0.000000
-0.087020 -1.325482 0.558359 -0.787835 0.287149 -0.544816 0.000000 0.000000
0.908214 -1.326380 0.558359 0.581011 0.574175 -0.576800 0.000000 0.000000
0.907036 -1.434348 0.558359 0.723533 -0.079226 -0.685690 0.000000 0.000000
0.908214 -1.326380 0.618261 0.711264 0.702902 0.000000 0.000000 0.000000
0.838610 -1.326317 0.618261 -0.158055 0.968169 0.193884 0.000000 0.000000
0.838610 -1.326317 0.667794 -0.458785 0.657155 0.598010 0.000000 0.000000
0.908214 -1.326380 0.667794 0.581011 0.574175 0.576800 0.000000 0.000000
0.789707 -1.806470 0.618261 0.876705 -0.480972 0.000000 0.000000 0.000000
0.679024 -1.968269 0.618261 0.135929 -0.990692 0.000000 0.000000 0.000000
0.808430 -1.326290 0.618261 0.221564 0.797388 0.561296 0.000000 0.000000
0.907036 -1.434348 0.618261 0.994049 -0.108860 0.000000 0.000000 0.000000
0.866697 -1.626187 0.618261 0.953703 -0.300699 0.000000 0.000000 0.000000
0.621337 -1.919864 0.618261 -0.744011 -0.639180 0.194494 0.000000 0.000000
0.679024 -1.968269 0.667794 0.111454 -0.812372 0.572344 0.000000 0.000000
0.789707 -1.806470 0.667794 0.638142 -0.350078 0.685690 0.000000 0.000000
0.866697 -1.626187 0.667794 0.694174 -0.218879 0.685690 0.000000 0.000000
0.907036 -1.434348 0.667794 0.723533 -0.079226 0.685690 0.000000 0.000000
0.621337 -1.919864 0.667794 -0.774468 -0.206732 0.597827 0.000000 0.000000
0.798108 -1.354617 0.639027 0.272530 0.134190 0.952727 0.000000 0.000000
0.798108 -1.354617 0.639027 0.272530 0.134190 0.952727 2.074865 1.291158
-0.024196 -1.348697 0.639027 -0.194922 0.094729 0.976226 -1.074865 1.291158
0.612125 -1.865000 0.639027 0.140507 -0.260994 0.955046 1.376591 -0.668828
4 0 1 2 3
3 4 5 6
3 6 7 8
3 8 9 4
3 6 8 4
4 10 11 12 13
4 6 5 14 15
3 10 8 7
3 7 3 16
3 11 10 7
3 7 16 11
4 9 8 10 17
4 5 4 18 14
3 3 7 6
3 6 15 19
3 0 3 6
3 6 19 0
4 4 9 17 18
3 20 21 22
3 22 23 13
3 13 12 24
3 24 20 22
3 22 13 24
3 0 19 11
3 11 16 25
3 25 1 0
3 11 25 0
4 11 19 24 12
4 17 10 13 23
4 14 18 22 21
4 19 15 20 24
4 18 17 23 22
4 15 14 21 20
4 25 16 3 2
3 26 27 28
